# xmcd
#
# Track frame offsets: 
#        150
#        11962
#        25049
#        39674
#
# Disc length: 742 seconds
#
# Revision: 0
# Processed by: cddbd v1.5.2PL0 Copyright (c) Steve Scherf et al.
# Submitted via: ExactAudioCopy v0.99pb3
#
DISCID=2902e404
DTITLE=Driving East - Driving East (EP)
DYEAR=2007
DGENRE=Pop Punk
TTITLE0=Backseat
TTITLE1=Come On, Come On
TTITLE2=Blue Eyes
TTITLE3=All She Ever Wanted
EXTD=
EXTT0=
EXTT1=
EXTT2=
EXTT3=
PLAYORDER=
